<?xml version="1.0" standalone="no"?>
<!DOCTYPE svg PUBLIC "-//W3C//DTD SVG 20010904//EN"
 "http://www.w3.org/TR/2001/REC-SVG-20010904/DTD/svg10.dtd">
<svg version="1.0" xmlns="http://www.w3.org/2000/svg"
 width="260.000000pt" height="260.000000pt" viewBox="0 0 260.000000 260.000000"
 preserveAspectRatio="xMidYMid meet">
<metadata>
Created by potrace 1.11, written by Peter Selinger 2001-2013
</metadata>
<g transform="translate(0.000000,260.000000) scale(0.100000,-0.100000)"
fill="#000000" stroke="none">
<path d="M0 1300 l0 -1300 1300 0 1300 0 0 1300 0 1300 -1300 0 -1300 0 0
-1300z m1719 780 c22 -102 41 -192 41 -200 0 -8 -26 11 -57 42 l-58 57 -260
-471 c-143 -259 -279 -498 -302 -529 -106 -145 -286 -228 -468 -216 -338 23
-576 341 -500 666 99 417 618 562 921 256 40 -40 75 -83 79 -95 5 -17 -2 -41
-26 -86 -19 -35 -36 -64 -39 -64 -3 0 -16 23 -29 52 -33 72 -116 152 -196 190
-121 56 -277 49 -391 -18 -62 -36 -131 -116 -167 -192 -47 -99 -47 -235 0
-334 117 -248 419 -324 637 -159 29 21 66 59 82 83 16 25 175 309 353 631 179
323 328 584 332 580 3 -5 25 -91 48 -193z m365 -270 c107 -27 169 -63 252
-145 117 -116 171 -252 161 -410 -17 -279 -232 -495 -510 -513 -164 -10 -307
45 -424 164 -40 40 -75 84 -79 98 -4 17 4 42 28 85 18 33 35 61 38 61 3 0 16
-23 29 -52 33 -73 116 -152 198 -190 119 -56 275 -49 388 18 57 33 130 111
159 170 127 254 -25 548 -308 597 -83 14 -169 1 -251 -39 -117 -57 -129 -76
-495 -737 -184 -334 -337 -603 -341 -599 -4 4 -25 93 -48 197 -23 105 -45 197
-47 205 -3 8 21 -11 53 -42 32 -32 62 -58 65 -58 4 0 115 197 248 438 133 240
262 469 287 509 126 206 364 303 597 243z"/>
</g>
</svg>
